Coordinates
version=1
nRows=9
nColumns=36
inDegrees=yes

Units are S.I. units (second, meters, Newtons, ...)
If the header above contains a line with 'inDegrees', this indicates whether rotational values are in degrees (yes) or radians (no).

endheader
time	pelvis_tilt	pelvis_list	pelvis_rotation	pelvis_tx	pelvis_ty	pelvis_tz	hip_flexion_r	hip_adduction_r	hip_rotation_r	knee_angle_r	knee_angle_r_beta	ankle_angle_r	subtalar_angle_r	mtp_angle_r	hip_flexion_l	hip_adduction_l	hip_rotation_l	knee_angle_l	knee_angle_l_beta	ankle_angle_l	subtalar_angle_l	mtp_angle_l	lumbar_extension	lumbar_bending	lumbar_rotation	arm_flex_r	arm_add_r	arm_rot_r	elbow_flex_r	pro_sup_r	arm_flex_l	arm_add_l	arm_rot_l	elbow_flex_l	pro_sup_l
      0.00000000	      1.51939200	     -0.90746280	      0.22129582	     -0.97681855	      1.25351500	     -0.04774330	     -4.40184097	      1.31936866	     -1.65364566	      5.39783260	      0.09420995	     -0.34131998	    -17.85159297	     -5.91316161	     -4.71128693	     -4.07270131	     -1.65038519	      7.03459905	      0.12277691	     10.38772742	      1.11375332	     -5.91316161	    -10.24214004	      2.87665461	     -1.54808407	     21.11452573	     -8.24109105	     44.35411862	     28.19452764	     71.36193507	     16.71375754	     -7.31631558	     40.99225353	     27.05222910	     61.49322724
      0.00416670	      0.74854216	      0.02933143	      0.56284334	     -0.97499296	      1.25299505	     -0.04774919	     -3.31590467	      0.68101811	     -1.77754361	      5.78769978	      0.10101442	      3.56526015	    -15.35555861	     -6.02758165	     -3.69048853	     -2.65714434	     -0.73411521	      6.80195151	      0.11871645	     10.30905348	      2.92310051	     -6.02758165	     -9.44208817	      1.81731843	     -1.50816524	     21.48546224	     -8.53188499	     49.59996186	     28.32392642	     73.00786057	     17.94756658	     -7.84953125	     45.28651179	     26.62006969	     62.79118568
      0.00833330	      0.20379925	      0.98346754	      0.32969260	     -0.97438904	      1.25416839	     -0.04521772	     -3.27044074	     -0.18693131	     -2.91841323	      4.79237332	      0.08364269	      3.84837325	    -14.21413493	     -6.23722546	     -3.62430297	     -1.78992010	     -1.34036503	      6.00243617	      0.10476227	     10.04589786	      3.97320530	     -6.23722546	     -8.78490199	      0.39205693	     -1.12886123	     22.12645455	     -8.87827917	     56.11063217	     28.16315826	     74.04987948	     19.08595567	     -9.27217780	     51.97744910	     26.79551094	     63.99568797
      0.01250000	      0.76489251	      1.45442705	      0.38445329	     -0.97505870	      1.25519915	     -0.04525270	     -4.36702317	     -0.70676630	     -3.16223238	      4.04868284	      0.07066285	      4.35941282	    -13.17447306	     -6.75612212	     -4.67005695	     -1.29285380	     -1.18868862	      5.15709091	      0.09000822	      9.60046491	      3.98462102	     -6.75612212	     -9.51303290	     -0.23783613	     -0.81513633	     22.61844999	     -9.17381177	     60.08434210	     27.98474509	     72.62430905	     20.22166478	     -9.95581230	     56.99259232	     26.72679218	     63.66439960
      0.01666670	      1.19332942	      1.62022045	      0.43107984	     -0.97523950	      1.25626712	     -0.04551584	     -5.24040558	     -0.83463032	     -3.13030742	      3.37668411	      0.05893426	      4.19151175	    -13.01429699	     -6.80764799	     -5.50358996	     -1.06288760	     -1.19226467	      4.40983094	      0.07696607	      9.08249021	      4.01887148	     -6.80764799	    -10.25001369	     -0.36797829	     -0.64518780	     22.74437684	     -9.16696749	     60.32817144	     27.52430581	     72.22759173	     20.50544665	     -9.98014741	     57.70033791	     26.59548166	     63.53635389
      0.02083330	      1.48884279	      1.76451547	      0.58156677	     -0.97308394	      1.25482918	     -0.04706498	     -5.91367745	     -1.01790424	     -3.19132773	      3.00154184	      0.05238679	      4.46290078	    -12.24940384	     -6.89261538	     -6.00453183	     -0.84607615	     -0.91499885	      4.04571557	      0.07061106	      8.89845981	      3.83186255	     -6.89261538	    -10.41679103	     -0.44095222	     -0.41835343	     22.96528448	     -9.33659676	     62.44505805	     26.74593332	     72.49921645	     21.42321873	     -9.85458972	     63.12677555	     25.52397562	     63.13946892
      0.02500000	      1.75547692	      1.81183638	      0.67922555	     -0.97519612	      1.25695389	     -0.04653032	     -6.43964832	     -1.05389514	     -3.07698975	      2.65830474	      0.04639617	      4.43606464	    -12.18321319	     -6.92027697	     -6.40577683	     -0.73940737	     -0.87920973	      3.72927370	      0.06508810	      8.66770336	      3.50554002	     -6.92027697	    -10.86912723	     -0.39944674	     -0.41917189	     23.13139586	     -9.37773759	     62.15963420	     26.44544084	     72.06506539	     21.69144525	     -9.75495801	     63.38310523	     25.34981702	     62.87182367
      0.02916670	      1.91411686	      1.85361531	      0.74220175	     -0.97421424	      1.25792998	     -0.04696033	     -6.82870155	     -1.09719397	     -3.00462278	      2.36861365	      0.04134011	      4.45195236	    -11.94969065	     -6.98703779	     -6.67180962	     -0.67330145	     -0.88318758	      3.51449101	      0.06133944	      8.44404106	      3.31866958	     -6.98703779	    -10.96574862	     -0.41151275	     -0.17242545	     23.12673389	     -9.51666974	     62.56808404	     26.15763345	     71.60130826	     22.37465501	     -9.52124514	     66.99389859	     24.47684810	     61.79108498
      0.03333330	      1.97770566	      1.86035269	      0.74085674	     -0.97451339	      1.25668499	     -0.04557521	     -7.04605149	     -1.06236641	     -2.82357749	      2.05596666	      0.03588339	      4.35698309	    -11.97811165	     -7.08554345	     -6.81952908	     -0.66133560	     -0.91408712	      3.28268061	      0.05729358	      8.28358528	      3.16626768	     -7.08554345	    -11.01605123	     -0.42150747	     -0.07420110	     23.06935521	     -9.52042370	     62.17551718	     26.08244608	     70.56827824	     22.50183584	     -9.45873886	     67.48392076	     24.24377794	     60.85910607
